<mxfile host="65bd71144e">
    <diagram id="opcYJe9jVYEtM_SSfWl6" name="Page-1">
        <mxGraphModel dx="576" dy="474" grid="1" gridSize="10" guides="1" tooltips="1" connect="1" arrows="1" fold="1" page="1" pageScale="1" pageWidth="827" pageHeight="1169" math="0" shadow="0">
            <root>
                <mxCell id="0"/>
                <mxCell id="1" parent="0"/>
                <mxCell id="3" value="&lt;span style=&quot;color: rgb(232, 230, 227); font-family: &amp;quot;Söhne Mono&amp;quot;, Monaco, &amp;quot;Andale Mono&amp;quot;, &amp;quot;Ubuntu Mono&amp;quot;, monospace; font-size: 14px; font-weight: 400; text-align: left;&quot;&gt;Utilisateur  &lt;/span&gt;" style="swimlane;whiteSpace=wrap;html=1;startSize=23;" vertex="1" parent="1">
                    <mxGeometry x="170" y="70" width="200" height="160" as="geometry"/>
                </mxCell>
                <mxCell id="5" value="&lt;br&gt;&lt;span style=&quot;color: rgb(232, 230, 227); font-family: &amp;quot;Söhne Mono&amp;quot;, Monaco, &amp;quot;Andale Mono&amp;quot;, &amp;quot;Ubuntu Mono&amp;quot;, monospace; font-size: 14px; font-style: normal; font-variant-ligatures: normal; font-variant-caps: normal; font-weight: 400; letter-spacing: normal; orphans: 2; text-align: left; text-indent: 0px; text-transform: none; widows: 2; word-spacing: 0px; -webkit-text-stroke-width: 0px; text-decoration-thickness: initial; text-decoration-style: initial; text-decoration-color: initial; float: none; display: inline !important;&quot;&gt;-Consulter articles&lt;br&gt;-Lire &lt;/span&gt;&lt;span style=&quot;border: 0px solid rgb(57, 62, 64); box-sizing: border-box; --tw-border-spacing-x: 0; --tw-border-spacing-y: 0; --tw-translate-x: 0; --tw-translate-y: 0; --tw-rotate: 0; --tw-skew-x: 0; --tw-skew-y: 0; --tw-scale-x: 1; --tw-scale-y: 1; --tw-pan-x: ; --tw-pan-y: ; --tw-pinch-zoom: ; --tw-scroll-snap-strictness: proximity; --tw-gradient-from-position: ; --tw-gradient-via-position: ; --tw-gradient-to-position: ; --tw-ordinal: ; --tw-slashed-zero: ; --tw-numeric-figure: ; --tw-numeric-spacing: ; --tw-numeric-fraction: ; --tw-ring-inset: ; --tw-ring-offset-width: 0px; --tw-ring-offset-color: #fff; --tw-ring-color: rgba(69,89,164,0.5); --tw-ring-offset-shadow: 0 0 transparent; --tw-ring-shadow: 0 0 transparent; --tw-shadow: 0 0 transparent; --tw-shadow-colored: 0 0 transparent; --tw-blur: ; --tw-brightness: ; --tw-contrast: ; --tw-grayscale: ; --tw-hue-rotate: ; --tw-invert: ; --tw-saturate: ; --tw-sepia: ; --tw-drop-shadow: ; --tw-backdrop-blur: ; --tw-backdrop-brightness: ; --tw-backdrop-contrast: ; --tw-backdrop-grayscale: ; --tw-backdrop-hue-rotate: ; --tw-backdrop-invert: ; --tw-backdrop-opacity: ; --tw-backdrop-saturate: ; --tw-backdrop-sepia: ; --darkreader-bg--tw-ring-offset-width: 0px; --darkreader-bg--tw-ring-offset-color: #181a1b; --darkreader-bg--tw-ring-color: rgba(55, 71, 131, 0.5); --darkreader-bg--tw-ring-offset-shadow: 0 0 transparent; --darkreader-bg--tw-ring-shadow: 0 0 transparent; --darkreader-bg--tw-shadow: 0 0 transparent; --darkreader-bg--tw-shadow-colored: 0 0 transparent; color: rgb(232, 230, 227); font-family: &amp;quot;Söhne Mono&amp;quot;, Monaco, &amp;quot;Andale Mono&amp;quot;, &amp;quot;Ubuntu Mono&amp;quot;, monospace; font-size: 14px; font-style: normal; font-variant-ligatures: normal; font-variant-caps: normal; font-weight: 400; letter-spacing: normal; orphans: 2; text-align: left; text-indent: 0px; text-transform: none; widows: 2; word-spacing: 0px; -webkit-text-stroke-width: 0px; text-decoration-thickness: initial; text-decoration-style: initial; text-decoration-color: initial;&quot; class=&quot;hljs-selector-tag&quot;&gt;article&lt;/span&gt;&lt;span style=&quot;color: rgb(232, 230, 227); font-family: &amp;quot;Söhne Mono&amp;quot;, Monaco, &amp;quot;Andale Mono&amp;quot;, &amp;quot;Ubuntu Mono&amp;quot;, monospace; font-size: 14px; font-style: normal; font-variant-ligatures: normal; font-variant-caps: normal; font-weight: 400; letter-spacing: normal; orphans: 2; text-align: left; text-indent: 0px; text-transform: none; widows: 2; word-spacing: 0px; -webkit-text-stroke-width: 0px; text-decoration-thickness: initial; text-decoration-style: initial; text-decoration-color: initial; float: none; display: inline !important;&quot;&gt;&lt;br&gt;-Laisser commentaire&lt;br&gt;-S'inscrire&lt;br&gt;-Se connecter&lt;br&gt;-Se déconnecter &lt;/span&gt;" style="text;html=1;align=center;verticalAlign=middle;resizable=0;points=[];autosize=1;strokeColor=none;fillColor=none;" vertex="1" parent="3">
                    <mxGeometry x="5" y="20" width="190" height="130" as="geometry"/>
                </mxCell>
                <mxCell id="6" value="" style="shape=flexArrow;endArrow=classic;html=1;" edge="1" parent="1">
                    <mxGeometry width="50" height="50" relative="1" as="geometry">
                        <mxPoint x="269.5" y="300" as="sourcePoint"/>
                        <mxPoint x="269.5" y="230" as="targetPoint"/>
                    </mxGeometry>
                </mxCell>
                <mxCell id="7" value="&lt;span style=&quot;font-family: &amp;quot;Söhne Mono&amp;quot;, Monaco, &amp;quot;Andale Mono&amp;quot;, &amp;quot;Ubuntu Mono&amp;quot;, monospace; font-size: 14px; font-weight: 400; text-align: left;&quot;&gt;&lt;font style=&quot;&quot; color=&quot;#e8e6e3&quot;&gt;Administrateur &lt;/font&gt;&lt;/span&gt;" style="swimlane;whiteSpace=wrap;html=1;" vertex="1" parent="1">
                    <mxGeometry x="170" y="300" width="200" height="200" as="geometry"/>
                </mxCell>
                <mxCell id="8" value="&lt;span style=&quot;color: rgb(232, 230, 227); font-family: &amp;quot;Söhne Mono&amp;quot;, Monaco, &amp;quot;Andale Mono&amp;quot;, &amp;quot;Ubuntu Mono&amp;quot;, monospace; font-size: 14px; text-align: left;&quot;&gt;- Ajouter &lt;/span&gt;&lt;span style=&quot;border: 0px solid rgb(57, 62, 64); box-sizing: border-box; --tw-border-spacing-x: 0; --tw-border-spacing-y: 0; --tw-translate-x: 0; --tw-translate-y: 0; --tw-rotate: 0; --tw-skew-x: 0; --tw-skew-y: 0; --tw-scale-x: 1; --tw-scale-y: 1; --tw-pan-x: ; --tw-pan-y: ; --tw-pinch-zoom: ; --tw-scroll-snap-strictness: proximity; --tw-gradient-from-position: ; --tw-gradient-via-position: ; --tw-gradient-to-position: ; --tw-ordinal: ; --tw-slashed-zero: ; --tw-numeric-figure: ; --tw-numeric-spacing: ; --tw-numeric-fraction: ; --tw-ring-inset: ; --tw-ring-offset-width: 0px; --tw-ring-offset-color: #fff; --tw-ring-color: rgba(69,89,164,0.5); --tw-ring-offset-shadow: 0 0 transparent; --tw-ring-shadow: 0 0 transparent; --tw-shadow: 0 0 transparent; --tw-shadow-colored: 0 0 transparent; --tw-blur: ; --tw-brightness: ; --tw-contrast: ; --tw-grayscale: ; --tw-hue-rotate: ; --tw-invert: ; --tw-saturate: ; --tw-sepia: ; --tw-drop-shadow: ; --tw-backdrop-blur: ; --tw-backdrop-brightness: ; --tw-backdrop-contrast: ; --tw-backdrop-grayscale: ; --tw-backdrop-hue-rotate: ; --tw-backdrop-invert: ; --tw-backdrop-opacity: ; --tw-backdrop-saturate: ; --tw-backdrop-sepia: ; --darkreader-bg--tw-ring-offset-width: 0px; --darkreader-bg--tw-ring-offset-color: #181a1b; --darkreader-bg--tw-ring-color: rgba(55, 71, 131, 0.5); --darkreader-bg--tw-ring-offset-shadow: 0 0 transparent; --darkreader-bg--tw-ring-shadow: 0 0 transparent; --darkreader-bg--tw-shadow: 0 0 transparent; --darkreader-bg--tw-shadow-colored: 0 0 transparent; color: rgb(232, 230, 227); font-family: &amp;quot;Söhne Mono&amp;quot;, Monaco, &amp;quot;Andale Mono&amp;quot;, &amp;quot;Ubuntu Mono&amp;quot;, monospace; font-size: 14px; text-align: left;&quot; class=&quot;hljs-selector-tag&quot;&gt;article&lt;br&gt;&lt;br&gt;&lt;/span&gt;&lt;span style=&quot;color: rgb(232, 230, 227); font-family: &amp;quot;Söhne Mono&amp;quot;, Monaco, &amp;quot;Andale Mono&amp;quot;, &amp;quot;Ubuntu Mono&amp;quot;, monospace; font-size: 14px; text-align: left;&quot;&gt;- Modifier &lt;/span&gt;&lt;span style=&quot;border: 0px solid rgb(57, 62, 64); box-sizing: border-box; --tw-border-spacing-x: 0; --tw-border-spacing-y: 0; --tw-translate-x: 0; --tw-translate-y: 0; --tw-rotate: 0; --tw-skew-x: 0; --tw-skew-y: 0; --tw-scale-x: 1; --tw-scale-y: 1; --tw-pan-x: ; --tw-pan-y: ; --tw-pinch-zoom: ; --tw-scroll-snap-strictness: proximity; --tw-gradient-from-position: ; --tw-gradient-via-position: ; --tw-gradient-to-position: ; --tw-ordinal: ; --tw-slashed-zero: ; --tw-numeric-figure: ; --tw-numeric-spacing: ; --tw-numeric-fraction: ; --tw-ring-inset: ; --tw-ring-offset-width: 0px; --tw-ring-offset-color: #fff; --tw-ring-color: rgba(69,89,164,0.5); --tw-ring-offset-shadow: 0 0 transparent; --tw-ring-shadow: 0 0 transparent; --tw-shadow: 0 0 transparent; --tw-shadow-colored: 0 0 transparent; --tw-blur: ; --tw-brightness: ; --tw-contrast: ; --tw-grayscale: ; --tw-hue-rotate: ; --tw-invert: ; --tw-saturate: ; --tw-sepia: ; --tw-drop-shadow: ; --tw-backdrop-blur: ; --tw-backdrop-brightness: ; --tw-backdrop-contrast: ; --tw-backdrop-grayscale: ; --tw-backdrop-hue-rotate: ; --tw-backdrop-invert: ; --tw-backdrop-opacity: ; --tw-backdrop-saturate: ; --tw-backdrop-sepia: ; --darkreader-bg--tw-ring-offset-width: 0px; --darkreader-bg--tw-ring-offset-color: #181a1b; --darkreader-bg--tw-ring-color: rgba(55, 71, 131, 0.5); --darkreader-bg--tw-ring-offset-shadow: 0 0 transparent; --darkreader-bg--tw-ring-shadow: 0 0 transparent; --darkreader-bg--tw-shadow: 0 0 transparent; --darkreader-bg--tw-shadow-colored: 0 0 transparent; color: rgb(232, 230, 227); font-family: &amp;quot;Söhne Mono&amp;quot;, Monaco, &amp;quot;Andale Mono&amp;quot;, &amp;quot;Ubuntu Mono&amp;quot;, monospace; font-size: 14px; text-align: left;&quot; class=&quot;hljs-selector-tag&quot;&gt;article&lt;br&gt;&lt;br&gt;&lt;/span&gt;&lt;span style=&quot;color: rgb(232, 230, 227); font-family: &amp;quot;Söhne Mono&amp;quot;, Monaco, &amp;quot;Andale Mono&amp;quot;, &amp;quot;Ubuntu Mono&amp;quot;, monospace; font-size: 14px; text-align: left;&quot;&gt;- Supprimer &lt;/span&gt;&lt;span style=&quot;border: 0px solid rgb(57, 62, 64); box-sizing: border-box; --tw-border-spacing-x: 0; --tw-border-spacing-y: 0; --tw-translate-x: 0; --tw-translate-y: 0; --tw-rotate: 0; --tw-skew-x: 0; --tw-skew-y: 0; --tw-scale-x: 1; --tw-scale-y: 1; --tw-pan-x: ; --tw-pan-y: ; --tw-pinch-zoom: ; --tw-scroll-snap-strictness: proximity; --tw-gradient-from-position: ; --tw-gradient-via-position: ; --tw-gradient-to-position: ; --tw-ordinal: ; --tw-slashed-zero: ; --tw-numeric-figure: ; --tw-numeric-spacing: ; --tw-numeric-fraction: ; --tw-ring-inset: ; --tw-ring-offset-width: 0px; --tw-ring-offset-color: #fff; --tw-ring-color: rgba(69,89,164,0.5); --tw-ring-offset-shadow: 0 0 transparent; --tw-ring-shadow: 0 0 transparent; --tw-shadow: 0 0 transparent; --tw-shadow-colored: 0 0 transparent; --tw-blur: ; --tw-brightness: ; --tw-contrast: ; --tw-grayscale: ; --tw-hue-rotate: ; --tw-invert: ; --tw-saturate: ; --tw-sepia: ; --tw-drop-shadow: ; --tw-backdrop-blur: ; --tw-backdrop-brightness: ; --tw-backdrop-contrast: ; --tw-backdrop-grayscale: ; --tw-backdrop-hue-rotate: ; --tw-backdrop-invert: ; --tw-backdrop-opacity: ; --tw-backdrop-saturate: ; --tw-backdrop-sepia: ; --darkreader-bg--tw-ring-offset-width: 0px; --darkreader-bg--tw-ring-offset-color: #181a1b; --darkreader-bg--tw-ring-color: rgba(55, 71, 131, 0.5); --darkreader-bg--tw-ring-offset-shadow: 0 0 transparent; --darkreader-bg--tw-ring-shadow: 0 0 transparent; --darkreader-bg--tw-shadow: 0 0 transparent; --darkreader-bg--tw-shadow-colored: 0 0 transparent; color: rgb(232, 230, 227); font-family: &amp;quot;Söhne Mono&amp;quot;, Monaco, &amp;quot;Andale Mono&amp;quot;, &amp;quot;Ubuntu Mono&amp;quot;, monospace; font-size: 14px; text-align: left;&quot; class=&quot;hljs-selector-tag&quot;&gt;article&lt;/span&gt;" style="text;html=1;align=center;verticalAlign=middle;resizable=0;points=[];autosize=1;strokeColor=none;fillColor=none;" vertex="1" parent="7">
                    <mxGeometry x="10" y="50" width="180" height="100" as="geometry"/>
                </mxCell>
            </root>
        </mxGraphModel>
    </diagram>
</mxfile>